<?xml version="1.0" encoding="iso-8859-1"?>
<!-- Generator: Adobe Illustrator 16.0.0, SVG Export Plug-In . SVG Version: 6.00 Build 0)  -->
<!DOCTYPE svg PUBLIC "-//W3C//DTD SVG 1.1//EN" "http://www.w3.org/Graphics/SVG/1.1/DTD/svg11.dtd">
<svg version="1.1" id="Capa_1" xmlns="http://www.w3.org/2000/svg" xmlns:xlink="http://www.w3.org/1999/xlink" x="0px" y="0px"
	 width="512px" height="512px" viewBox="0 0 512 512" style="enable-background:new 0 0 512 512;" xml:space="preserve">
<g>
	<g>
		<path d="M335.375,196.469C331.219,94.875,304.188,0,256,0c-48.188,0-75.219,94.875-79.375,196.469
			C166.875,201.938,160,212,160,224c0,17.688,14.313,32,32,32s32-14.313,32-32c0-11.344-6.25-20.844-15.125-26.531
			C213.063,94.469,240.406,32,256,32s42.938,62.5,47.156,165.5C294.25,203.156,288,212.656,288,224c0,17.688,14.312,32,32,32
			s32-14.313,32-32C352,212,345.125,201.938,335.375,196.469z"/>
		<polygon points="416,128 352,128 352,160 388.906,160 442.219,480 69.781,480 123.125,160 160,160 160,128 96,128 32,512 480,512 
					"/>
	</g>
</g>
<g>
</g>
<g>
</g>
<g>
</g>
<g>
</g>
<g>
</g>
<g>
</g>
<g>
</g>
<g>
</g>
<g>
</g>
<g>
</g>
<g>
</g>
<g>
</g>
<g>
</g>
<g>
</g>
<g>
</g>
</svg>
